<?xml version="1.0" encoding="UTF-8" standalone="no"?>
<!-- Creator: CorelDRAW -->

<svg
   xml:space="preserve"
   width="2048px"
   height="2048px"
   style="shape-rendering:geometricPrecision; text-rendering:geometricPrecision; image-rendering:optimizeQuality; fill-rule:evenodd; clip-rule:evenodd"
   viewBox="0 0 2048 2048"
   version="1.1"
   id="svg17267"
   sodipodi:docname="profiles_raw.svg"
   inkscape:version="1.2.2 (732a01da63, 2022-12-09)"
   xmlns:inkscape="http://www.inkscape.org/namespaces/inkscape"
   xmlns:sodipodi="http://sodipodi.sourceforge.net/DTD/sodipodi-0.dtd"
   xmlns="http://www.w3.org/2000/svg"
   xmlns:svg="http://www.w3.org/2000/svg"><sodipodi:namedview
   id="namedview17269"
   pagecolor="#ffffff"
   bordercolor="#000000"
   borderopacity="0.25"
   inkscape:showpageshadow="2"
   inkscape:pageopacity="0.0"
   inkscape:pagecheckerboard="0"
   inkscape:deskcolor="#d1d1d1"
   showgrid="false"
   inkscape:zoom="0.50146484"
   inkscape:cx="1014.0292"
   inkscape:cy="1022.0058"
   inkscape:window-width="1346"
   inkscape:window-height="1230"
   inkscape:window-x="1793"
   inkscape:window-y="100"
   inkscape:window-maximized="0"
   inkscape:current-layer="Layer_x0020_1" />
 <defs
   id="defs17191">
  <style
   type="text/css"
   id="style17186">
   <![CDATA[
    .fil2 {fill:none}
    .fil1 {fill:#0097A7}
    .fil0 {fill:#26C6DA}
    .fil5 {fill:#FFFFFE}
    .fil7 {fill:#D32F2F;fill-rule:nonzero}
    .fil6 {fill:#E53935;fill-rule:nonzero}
    .fil4 {fill:#F57C00;fill-rule:nonzero}
    .fil3 {fill:#FFA726;fill-rule:nonzero}
   ]]>
  </style>
   <clipPath
   id="id0">
    <path
   d="M1024 -0.0011811c565.541,0 1024,458.461 1024,1024 0,565.541 -458.461,1024 -1024,1024 -565.541,0 -1024,-458.461 -1024,-1024 0,-565.541 458.461,-1024 1024,-1024z"
   id="path17188" />
   </clipPath>
 </defs>
 <g
   id="Layer_x0020_1"
   inkscape:label="Layer 1">
  <metadata
   id="CorelCorpID_0Corel-Layer" />
  <path
   class="fil0"
   d="m 1024,-0.0011811 c 565.541,0 1024,458.4610011 1024,1023.9999811 0,565.541 -458.461,1024 -1024,1024 -565.541,0 -1024,-458.461 -1024,-1024 C 0,458.45782 458.461,-0.0011811 1024,-0.0011811 Z"
   id="path17194"
   style="display:inline" />
  <g
   style="clip-path:url(#id0)"
   clip-path="url(#id0)"
   id="g17238">
   <g
   id="_385667056">
    <g
   id="g17234">
     <polygon
   id="_2840782241"
   class="fil1"
   points="1115.47,555.474 2251.35,1691.36 2253.16,1693.4 2254.93,1695.48 2256.64,1697.6 2258.3,1699.77 2259.91,1701.98 2261.47,1704.22 2262.97,1706.51 2264.42,1708.83 2265.82,1711.2 2267.16,1713.59 2268.44,1716.02 2269.67,1718.49 2270.84,1720.99 2271.94,1723.52 2272.99,1726.09 2273.98,1728.68 2274.9,1731.31 2275.77,1733.96 2276.56,1736.65 2277.3,1739.36 2277.96,1742.09 2278.56,1744.85 2279.1,1747.64 2279.56,1750.45 2279.96,1753.28 2280.29,1756.13 2280.54,1759.01 2280.73,1761.9 2280.84,1764.82 2280.87,1767.75 1144.99,631.867 1144.96,628.934 1144.84,626.02 1144.66,623.125 1144.41,620.25 1144.08,617.397 1143.68,614.565 1143.22,611.755 1142.68,608.97 1142.08,606.208 1141.41,603.473 1140.68,600.763 1139.88,598.081 1139.02,595.427 1138.1,592.802 1137.11,590.207 1136.06,587.643 1134.95,585.109 1133.79,582.61 1132.56,580.143 1131.28,577.711 1129.94,575.313 1128.54,572.952 1127.09,570.629 1125.59,568.342 1124.03,566.096 1122.42,563.888 1120.76,561.721 1119.04,559.596 1117.28,557.513 " />
     <polygon
   id="_284078896"
   class="fil1"
   points="1144.99,631.867 2280.87,1767.75 2280.84,1770.68 2280.73,1773.6 2280.54,1776.49 2280.29,1779.37 2279.96,1782.22 2279.56,1785.05 2279.1,1787.86 2278.56,1790.65 2277.96,1793.41 2277.3,1796.14 2276.56,1798.85 2275.77,1801.53 2274.9,1804.19 2273.98,1806.81 2272.99,1809.41 2271.94,1811.97 2270.84,1814.51 2269.67,1817 2268.44,1819.47 2267.16,1821.9 2265.82,1824.3 2264.42,1826.66 2262.97,1828.99 2261.47,1831.27 2259.91,1833.52 2258.3,1835.73 2256.64,1837.89 2254.93,1840.02 2253.16,1842.1 2251.35,1844.14 2249.5,1846.14 2247.59,1848.09 1111.71,712.204 1113.62,710.254 1115.47,708.258 1117.28,706.219 1119.04,704.136 1120.76,702.011 1122.42,699.844 1124.03,697.636 1125.59,695.39 1127.09,693.103 1128.54,690.78 1129.94,688.419 1131.28,686.021 1132.56,683.59 1133.79,681.122 1134.95,678.623 1136.06,676.089 1137.11,673.525 1138.1,670.93 1139.02,668.305 1139.88,665.651 1140.68,662.969 1141.41,660.259 1142.08,657.524 1142.68,654.763 1143.22,651.977 1143.68,649.169 1144.08,646.336 1144.41,643.483 1144.66,640.608 1144.84,637.713 1144.96,634.799 " />
     <polygon
   id="_284078992"
   class="fil1"
   points="1111.71,712.204 2247.59,1848.09 2246.51,1849.15 2245.41,1850.21 2244.3,1851.25 2243.18,1852.27 2242.04,1853.28 2240.89,1854.28 2239.72,1855.25 2238.55,1856.22 2237.35,1857.17 2236.15,1858.1 2234.93,1859.02 2233.7,1859.92 2232.46,1860.8 2231.21,1861.67 2229.94,1862.52 2228.66,1863.36 2227.37,1864.18 2226.07,1864.98 2224.75,1865.76 2223.43,1866.53 2222.09,1867.28 2220.75,1868.01 2219.39,1868.72 2218.02,1869.42 2216.64,1870.1 2215.25,1870.76 2213.85,1871.4 2212.44,1872.03 2211.02,1872.63 2209.59,1873.22 2208.15,1873.78 2206.7,1874.33 1070.82,738.448 1072.27,737.9 1073.71,737.333 1075.14,736.747 1076.56,736.143 1077.97,735.519 1079.37,734.877 1080.76,734.216 1082.14,733.538 1083.51,732.842 1084.87,732.127 1086.21,731.395 1087.55,730.646 1088.87,729.878 1090.19,729.094 1091.49,728.293 1092.78,727.475 1094.06,726.64 1095.32,725.788 1096.58,724.919 1097.82,724.035 1099.05,723.134 1100.27,722.217 1101.47,721.284 1102.66,720.336 1103.84,719.372 1105.01,718.393 1106.16,717.399 1107.3,716.39 1108.42,715.365 1109.53,714.327 1110.63,713.272 " />
     <polygon
   id="_284079208"
   class="fil1"
   points="1267.69,922.022 2403.57,2057.9 2404.13,2059.6 2404.66,2061.28 2405.16,2062.96 2405.63,2064.62 2406.06,2066.28 2406.46,2067.93 2406.83,2069.56 2407.16,2071.19 2407.46,2072.8 2407.72,2074.41 2407.95,2076 2408.14,2077.58 2408.3,2079.15 2408.42,2080.71 2408.51,2082.25 2408.56,2083.79 2408.57,2085.31 2408.55,2086.81 2408.49,2088.31 2408.39,2089.79 2408.25,2091.25 2408.08,2092.7 2407.87,2094.14 2407.62,2095.56 2407.33,2096.97 2407,2098.36 2406.64,2099.74 2406.23,2101.1 2405.78,2102.44 2405.3,2103.77 2404.77,2105.08 2404.2,2106.37 1268.32,970.492 1268.89,969.199 1269.42,967.888 1269.9,966.561 1270.35,965.216 1270.75,963.856 1271.12,962.48 1271.45,961.089 1271.74,959.681 1271.99,958.259 1272.2,956.822 1272.37,955.371 1272.51,953.905 1272.61,952.425 1272.67,950.932 1272.69,949.425 1272.68,947.905 1272.63,946.372 1272.54,944.827 1272.42,943.269 1272.26,941.7 1272.07,940.118 1271.84,938.525 1271.58,936.921 1271.28,935.305 1270.95,933.679 1270.58,932.043 1270.18,930.396 1269.75,928.74 1269.28,927.074 1268.78,925.399 1268.25,923.715 " />
     <polygon
   id="_284079136"
   class="fil1"
   points="951.034,712.204 2086.91,1848.09 2085.01,1846.14 949.129,710.254 " />
     <polygon
   id="_284079376"
   class="fil1"
   points="870.673,680.988 2006.55,1816.87 2008.57,1819.09 2010.37,1821.5 2011.94,1824.08 2013.26,1826.81 2014.31,1829.69 2015.08,1832.68 2015.55,1835.79 2015.72,1838.99 2015.55,1842.19 2015.08,1845.29 2014.31,1848.29 2013.26,1851.17 2011.94,1853.9 2010.37,1856.48 2008.57,1858.89 2006.55,1861.11 2004.33,1863.13 2001.92,1864.93 1999.34,1866.5 1996.61,1867.81 1993.74,1868.86 1990.74,1869.64 1987.63,1870.11 1984.43,1870.27 1981.24,1870.11 1978.13,1869.64 1975.13,1868.86 1972.26,1867.81 1969.52,1866.5 1966.94,1864.93 1964.54,1863.13 1962.31,1861.11 826.433,725.227 828.655,727.245 831.063,729.047 833.642,730.614 836.377,731.931 839.251,732.982 842.248,733.753 845.355,734.227 848.553,734.389 851.751,734.227 854.858,733.753 857.855,732.982 860.729,731.931 863.463,730.614 866.043,729.047 868.451,727.245 870.673,725.227 872.691,723.005 874.492,720.597 876.059,718.017 877.377,715.283 878.428,712.41 879.199,709.411 879.673,706.304 879.835,703.106 879.673,699.908 879.199,696.801 878.428,693.804 877.377,690.93 876.059,688.196 874.492,685.616 872.691,683.209 " />
     <polygon
   id="_284079256"
   class="fil1"
   points="842.501,997.881 1978.38,2133.76 1976.08,2133.74 1973.83,2133.66 1971.64,2133.52 1969.5,2133.34 1967.42,2133.1 1965.39,2132.81 1963.41,2132.47 1961.48,2132.07 1959.61,2131.63 1957.79,2131.14 1956.02,2130.6 1954.3,2130.01 1952.64,2129.37 1951.02,2128.68 1949.46,2127.95 1947.95,2127.17 1946.48,2126.34 1945.07,2125.47 1943.71,2124.55 1942.39,2123.59 1941.13,2122.58 1939.91,2121.53 1938.74,2120.43 802.86,984.551 804.028,985.646 805.244,986.698 806.51,987.706 807.825,988.668 809.188,989.587 810.602,990.46 812.065,991.287 813.578,992.068 815.142,992.801 816.757,993.487 818.422,994.125 820.138,994.716 821.907,995.257 823.727,995.749 825.601,996.191 827.526,996.583 829.504,996.924 831.536,997.215 833.62,997.454 835.759,997.64 837.951,997.774 840.199,997.854 " />
     <polygon
   id="_284079616"
   class="fil1"
   points="1000.32,741.188 2136.2,1877.07 2134.43,1876.55 2132.68,1876.01 2130.94,1875.44 2129.21,1874.84 2127.5,1874.22 2125.79,1873.56 2124.1,1872.89 2122.43,1872.18 2120.77,1871.45 2119.12,1870.7 2117.48,1869.91 2115.87,1869.11 2114.26,1868.28 2112.67,1867.42 2111.1,1866.54 2109.54,1865.63 2107.99,1864.71 2106.47,1863.75 2104.96,1862.78 2103.46,1861.78 2101.98,1860.76 2100.52,1859.71 2099.08,1858.65 2097.66,1857.56 2096.25,1856.45 2094.86,1855.32 2093.49,1854.16 2092.14,1852.99 2090.8,1851.8 2089.49,1850.58 2088.19,1849.34 2086.91,1848.09 951.034,712.204 952.309,713.461 953.605,714.696 954.92,715.913 956.254,717.108 957.607,718.282 958.978,719.435 960.368,720.567 961.775,721.678 963.2,722.766 964.644,723.832 966.103,724.876 967.581,725.898 969.075,726.896 970.586,727.871 972.113,728.823 973.657,729.752 975.215,730.656 976.789,731.538 978.379,732.394 979.984,733.225 981.603,734.031 983.237,734.813 984.885,735.569 986.547,736.299 988.223,737.004 989.912,737.682 991.615,738.334 993.331,738.96 995.059,739.557 996.8,740.129 998.553,740.672 " />
     <polygon
   id="_284079664"
   class="fil1"
   points="1268.32,970.492 2404.2,2106.37 2403.44,2107.97 2402.63,2109.52 2401.77,2111.03 2400.86,2112.5 2399.9,2113.92 2398.89,2115.3 2397.83,2116.63 2396.72,2117.92 2395.56,2119.16 2394.35,2120.36 2393.08,2121.51 2391.77,2122.61 2390.4,2123.66 2388.98,2124.67 2387.5,2125.62 2385.98,2126.53 2384.39,2127.38 2382.76,2128.19 2381.07,2128.94 2379.32,2129.64 2377.52,2130.29 2375.67,2130.88 2373.75,2131.42 2371.79,2131.91 2369.76,2132.34 2367.68,2132.71 2365.54,2133.03 2363.35,2133.29 2361.09,2133.5 2358.78,2133.65 2356.41,2133.73 2353.98,2133.76 1218.1,997.881 1220.53,997.852 1222.9,997.763 1225.21,997.615 1227.47,997.411 1229.66,997.149 1231.8,996.829 1233.88,996.454 1235.91,996.023 1237.87,995.538 1239.78,994.997 1241.64,994.403 1243.44,993.755 1245.19,993.055 1246.88,992.303 1248.51,991.5 1250.09,990.644 1251.62,989.739 1253.1,988.784 1254.52,987.779 1255.89,986.726 1257.2,985.625 1258.47,984.476 1259.68,983.279 1260.84,982.037 1261.95,980.748 1263.01,979.415 1264.02,978.036 1264.98,976.613 1265.89,975.147 1266.75,973.638 1267.56,972.086 " />
     <polygon
   id="_284079712"
   class="fil1"
   points="1241.4,683.209 2377.28,1819.09 2379.08,1821.5 2380.65,1824.08 2381.97,1826.81 2383.02,1829.69 2383.79,1832.68 2384.26,1835.79 2384.42,1838.99 2384.26,1842.19 2383.79,1845.29 2383.02,1848.29 2381.97,1851.17 2380.65,1853.9 2379.08,1856.48 2377.28,1858.89 2375.26,1861.11 2373.04,1863.13 2370.63,1864.93 2368.05,1866.5 2365.32,1867.81 2362.44,1868.86 2359.45,1869.64 2356.34,1870.11 2353.14,1870.27 2349.94,1870.11 2346.84,1869.64 2343.84,1868.86 2340.96,1867.81 2338.23,1866.5 2335.65,1864.93 2333.24,1863.13 2331.02,1861.11 1195.14,725.227 1197.36,727.245 1199.77,729.047 1202.35,730.614 1205.08,731.931 1207.96,732.982 1210.95,733.753 1214.06,734.227 1217.26,734.389 1220.46,734.227 1223.56,733.753 1226.56,732.982 1229.44,731.931 1232.17,730.614 1234.75,729.047 1237.16,727.245 1239.38,725.227 1241.4,723.005 1243.2,720.597 1244.77,718.017 1246.08,715.283 1247.14,712.41 1247.91,709.411 1248.38,706.304 1248.54,703.106 1248.38,699.908 1247.91,696.801 1247.14,693.804 1246.08,690.93 1244.77,688.196 1243.2,685.616 " />
     <polygon
   id="_284079280"
   class="fil1"
   points="1353.06,789.912 2488.94,1925.79 2490.74,1928.2 2492.31,1930.78 2493.62,1933.52 2494.68,1936.39 2495.45,1939.39 2495.92,1942.5 2496.08,1945.69 2495.92,1948.89 2495.45,1952 2494.68,1955 2493.62,1957.87 2492.31,1960.6 2490.74,1963.18 2488.94,1965.59 2486.92,1967.81 2484.7,1969.83 2482.29,1971.63 2479.71,1973.2 2476.98,1974.52 2474.1,1975.57 2471.1,1976.34 2468,1976.81 2464.8,1976.98 2461.6,1976.81 2458.49,1976.34 2455.5,1975.57 2452.62,1974.52 2449.89,1973.2 2447.31,1971.63 2444.9,1969.83 2442.68,1967.81 1306.8,831.931 1309.02,833.95 1311.43,835.751 1314.01,837.317 1316.74,838.635 1319.62,839.686 1322.61,840.458 1325.72,840.931 1328.92,841.093 1332.12,840.931 1335.22,840.458 1338.22,839.686 1341.1,838.635 1343.83,837.317 1346.41,835.751 1348.82,833.95 1351.04,831.931 1353.06,829.71 1354.86,827.301 1356.43,824.722 1357.74,821.988 1358.79,819.114 1359.57,816.116 1360.04,813.01 1360.2,809.812 1360.04,806.613 1359.57,803.507 1358.79,800.509 1357.74,797.634 1356.43,794.9 1354.86,792.321 " />
     <polygon
   id="_284079352"
   class="fil1"
   points="1242.38,874.344 2378.26,2010.23 2379.33,2011.79 2380.38,2013.35 2381.42,2014.92 2382.44,2016.47 2383.45,2018.03 2384.44,2019.58 2385.41,2021.13 2386.36,2022.67 2387.3,2024.21 2388.22,2025.74 2389.12,2027.27 2390,2028.8 2390.87,2030.32 2391.71,2031.83 2392.54,2033.34 2393.35,2034.85 2394.14,2036.34 2394.91,2037.84 2395.66,2039.32 2396.39,2040.8 2397.11,2042.27 2397.8,2043.73 2398.47,2045.19 2399.12,2046.63 2399.75,2048.07 2400.36,2049.5 2400.95,2050.93 2401.51,2052.34 2402.06,2053.75 2402.58,2055.14 2403.09,2056.53 2403.57,2057.9 1267.69,922.022 1267.21,920.646 1266.7,919.26 1266.18,917.864 1265.63,916.458 1265.07,915.044 1264.48,913.622 1263.87,912.191 1263.24,910.751 1262.59,909.303 1261.92,907.848 1261.22,906.385 1260.51,904.914 1259.78,903.437 1259.03,901.953 1258.26,900.461 1257.47,898.965 1256.66,897.461 1255.83,895.952 1254.99,894.438 1254.12,892.918 1253.24,891.392 1252.34,889.862 1251.42,888.327 1250.48,886.788 1249.53,885.244 1248.56,883.697 1247.57,882.146 1246.56,880.592 1245.54,879.034 1244.5,877.472 1243.45,875.91 " />
     <polygon
   id="_284079040"
   class="fil1"
   points="1208.07,832.071 2343.95,1967.95 2348.78,1973.22 2353.48,1978.51 2358.02,1983.81 2362.41,1989.12 2366.64,1994.43 2370.7,1999.72 2374.57,2004.99 2378.26,2010.23 1242.38,874.344 1238.69,869.108 1234.82,863.839 1230.76,858.546 1226.53,853.24 1222.14,847.929 1217.6,842.625 1212.9,837.335 " />
     <polygon
   id="_284080432"
   class="fil1"
   points="759.014,787.691 1894.89,1923.57 1896.91,1925.79 1898.71,1928.2 1900.28,1930.78 1901.6,1933.52 1902.65,1936.39 1903.42,1939.39 1903.89,1942.5 1904.06,1945.69 1903.89,1948.89 1903.42,1952 1902.65,1955 1901.6,1957.87 1900.28,1960.6 1898.71,1963.18 1896.91,1965.59 1894.89,1967.81 1892.67,1969.83 1890.26,1971.63 1887.69,1973.2 1884.95,1974.52 1882.08,1975.57 1879.08,1976.34 1875.97,1976.81 1872.78,1976.98 1869.58,1976.81 1866.47,1976.34 1863.47,1975.57 1860.6,1974.52 1857.86,1973.2 1855.29,1971.63 1852.88,1969.83 1850.66,1967.81 714.774,831.931 716.996,833.95 719.404,835.751 721.984,837.317 724.718,838.635 727.592,839.686 730.589,840.458 733.695,840.931 736.894,841.093 740.092,840.931 743.199,840.458 746.196,839.686 749.07,838.635 751.805,837.317 754.384,835.751 756.792,833.95 759.014,831.931 761.032,829.71 762.833,827.301 764.401,824.722 765.718,821.988 766.769,819.114 767.54,816.116 768.014,813.01 768.175,809.812 768.014,806.613 767.54,803.507 766.769,800.509 765.718,797.634 764.401,794.9 762.833,792.321 761.032,789.912 " />
     <polygon
   id="_284080360"
   class="fil1"
   points="1218.1,997.881 2353.98,2133.76 1978.38,2133.76 842.501,997.881 " />
     <polygon
   id="_284080024"
   class="fil1"
   points="1423.02,1244.08 2558.9,2379.96 2557.82,2381.03 2556.72,2382.08 2555.61,2383.12 2554.49,2384.14 2553.35,2385.15 2552.2,2386.15 2551.03,2387.13 2549.85,2388.09 2548.66,2389.04 2547.46,2389.97 2546.24,2390.89 2545.01,2391.79 2543.77,2392.67 2542.51,2393.54 2541.25,2394.39 2539.97,2395.23 2538.68,2396.05 2537.38,2396.85 2536.06,2397.63 2534.74,2398.4 2533.4,2399.15 2532.06,2399.88 2530.7,2400.6 2529.33,2401.29 2527.95,2401.97 2526.56,2402.63 2525.16,2403.27 2523.75,2403.9 2522.33,2404.5 2520.9,2405.09 2519.46,2405.65 2518.01,2406.2 1382.13,1270.32 1383.58,1269.77 1385.02,1269.21 1386.45,1268.62 1387.87,1268.01 1389.28,1267.39 1390.68,1266.75 1392.07,1266.09 1393.45,1265.41 1394.82,1264.71 1396.18,1264 1397.52,1263.27 1398.86,1262.52 1400.18,1261.75 1401.5,1260.97 1402.8,1260.17 1404.09,1259.35 1405.37,1258.51 1406.63,1257.66 1407.89,1256.79 1409.13,1255.91 1410.36,1255.01 1411.58,1254.09 1412.78,1253.16 1413.97,1252.21 1415.15,1251.25 1416.32,1250.27 1417.47,1249.27 1418.61,1248.26 1419.73,1247.24 1420.84,1246.2 1421.94,1245.15 " />
     <polygon
   id="_284079832"
   class="fil1"
   points="1579,1453.89 2714.88,2589.78 2715.44,2591.47 2715.97,2593.15 2716.47,2594.83 2716.94,2596.49 2717.37,2598.15 2717.77,2599.8 2718.14,2601.43 2718.47,2603.06 2718.77,2604.67 2719.03,2606.28 2719.26,2607.87 2719.45,2609.45 2719.61,2611.02 2719.73,2612.58 2719.82,2614.13 2719.87,2615.66 2719.88,2617.18 2719.86,2618.69 2719.8,2620.18 2719.7,2621.66 2719.56,2623.12 2719.39,2624.58 2719.18,2626.01 2718.93,2627.44 2718.64,2628.84 2718.31,2630.23 2717.95,2631.61 2717.54,2632.97 2717.09,2634.32 2716.61,2635.64 2716.08,2636.95 2715.51,2638.25 1579.63,1502.36 1580.2,1501.07 1580.72,1499.76 1581.21,1498.43 1581.66,1497.09 1582.06,1495.73 1582.43,1494.35 1582.76,1492.96 1583.05,1491.55 1583.3,1490.13 1583.51,1488.69 1583.68,1487.24 1583.82,1485.78 1583.92,1484.3 1583.98,1482.8 1584,1481.3 1583.99,1479.78 1583.94,1478.24 1583.85,1476.7 1583.73,1475.14 1583.57,1473.57 1583.38,1471.99 1583.15,1470.4 1582.89,1468.79 1582.59,1467.18 1582.26,1465.55 1581.89,1463.91 1581.49,1462.27 1581.06,1460.61 1580.59,1458.95 1580.09,1457.27 1579.56,1455.59 " />
     <polygon
   id="_284080048"
   class="fil1"
   points="1311.63,1273.06 2447.51,2408.94 2445.74,2408.43 2443.99,2407.88 2442.25,2407.31 2440.52,2406.71 2438.81,2406.09 2437.1,2405.44 2435.41,2404.76 2433.74,2404.05 2432.08,2403.32 2430.43,2402.57 2428.79,2401.79 2427.17,2400.98 2425.57,2400.15 2423.98,2399.29 2422.41,2398.41 2420.85,2397.51 2419.3,2396.58 2417.78,2395.63 2416.27,2394.65 2414.77,2393.65 2413.3,2392.63 2411.83,2391.59 2410.39,2390.52 2408.97,2389.43 2407.56,2388.32 2406.17,2387.19 2404.8,2386.04 2403.44,2384.86 2402.11,2383.67 2400.8,2382.45 2399.5,2381.22 2398.22,2379.96 1262.34,1244.08 1263.62,1245.33 1264.91,1246.57 1266.23,1247.78 1267.56,1248.98 1268.92,1250.15 1270.29,1251.31 1271.68,1252.44 1273.09,1253.55 1274.51,1254.64 1275.95,1255.7 1277.41,1256.75 1278.89,1257.77 1280.39,1258.77 1281.9,1259.74 1283.42,1260.7 1284.97,1261.62 1286.53,1262.53 1288.1,1263.41 1289.69,1264.27 1291.29,1265.1 1292.91,1265.9 1294.55,1266.68 1296.2,1267.44 1297.86,1268.17 1299.53,1268.88 1301.22,1269.55 1302.93,1270.21 1304.64,1270.83 1306.37,1271.43 1308.11,1272 1309.86,1272.54 " />
     <polygon
   id="_284079952"
   class="fil1"
   points="688.419,934.683 1824.3,2070.56 1826.32,2072.79 1828.12,2075.19 1829.69,2077.77 1831.01,2080.51 1832.06,2083.38 1832.83,2086.38 1833.3,2089.49 1833.46,2092.68 1833.3,2095.88 1832.83,2098.99 1832.06,2101.99 1831.01,2104.86 1829.69,2107.6 1828.12,2110.17 1826.32,2112.58 1824.3,2114.8 1822.08,2116.82 1819.67,2118.62 1817.09,2120.19 1814.36,2121.51 1811.48,2122.56 1808.49,2123.33 1805.38,2123.8 1802.18,2123.97 1798.98,2123.8 1795.88,2123.33 1792.88,2122.56 1790,2121.51 1787.27,2120.19 1784.69,2118.62 1782.28,2116.82 1780.06,2114.8 644.181,978.922 646.402,980.941 648.81,982.742 651.389,984.309 654.123,985.626 656.997,986.677 659.995,987.448 663.101,987.922 666.299,988.084 669.498,987.922 672.604,987.448 675.602,986.677 678.477,985.626 681.211,984.309 683.79,982.742 686.199,980.941 688.419,978.922 690.439,976.7 692.24,974.292 693.806,971.714 695.124,968.978 696.175,966.105 696.947,963.107 697.42,960.001 697.582,956.802 697.42,953.604 696.947,950.498 696.175,947.5 695.124,944.626 693.806,941.891 692.24,939.313 690.439,936.904 " />
     <polygon
   id="_284079928"
   class="fil1"
   points="818.937,1163.74 1954.82,2299.62 1954.78,2302.55 1954.67,2305.47 1954.49,2308.36 1954.23,2311.24 1953.91,2314.09 1953.51,2316.92 1953.04,2319.73 1952.51,2322.52 1951.91,2325.28 1951.24,2328.01 1950.51,2330.72 1949.71,2333.4 1948.85,2336.06 1947.92,2338.68 1946.94,2341.28 1945.89,2343.84 1944.78,2346.38 1943.61,2348.88 1942.39,2351.34 1941.1,2353.77 1939.76,2356.17 1938.37,2358.53 1936.92,2360.86 1935.41,2363.14 1933.85,2365.39 1932.24,2367.6 1930.58,2369.76 1928.87,2371.89 1927.11,2373.97 1925.3,2376.01 1923.44,2378.01 1921.54,2379.96 785.657,1244.08 787.562,1242.13 789.419,1240.13 791.229,1238.09 792.99,1236.01 794.702,1233.88 796.364,1231.72 797.973,1229.51 799.531,1227.26 801.036,1224.98 802.486,1222.65 803.883,1220.29 805.223,1217.89 806.506,1215.46 807.732,1212.99 808.9,1210.49 810.008,1207.96 811.055,1205.4 812.042,1202.8 812.966,1200.18 813.829,1197.52 814.626,1194.84 815.359,1192.13 816.028,1189.39 816.628,1186.63 817.162,1183.85 817.628,1181.04 818.024,1178.21 818.35,1175.35 818.605,1172.48 818.789,1169.58 818.9,1166.67 " />
     <polygon
   id="_284080192"
   class="fil1"
   points="1579.63,1502.36 2715.51,2638.25 2714.75,2639.84 2713.94,2641.39 2713.08,2642.9 2712.17,2644.37 2711.21,2645.79 2710.2,2647.17 2709.14,2648.5 2708.03,2649.79 2706.87,2651.03 2705.66,2652.23 2704.39,2653.38 2703.08,2654.48 2701.71,2655.53 2700.29,2656.54 2698.81,2657.49 2697.28,2658.4 2695.7,2659.25 2694.07,2660.06 2692.38,2660.81 2690.63,2661.51 2688.83,2662.16 2686.97,2662.75 2685.06,2663.29 2683.1,2663.78 2681.07,2664.21 2678.99,2664.58 2676.85,2664.9 2674.66,2665.16 2672.4,2665.37 2670.09,2665.52 2667.72,2665.6 2665.29,2665.63 1529.41,1529.75 1531.84,1529.72 1534.21,1529.63 1536.52,1529.49 1538.78,1529.28 1540.97,1529.02 1543.11,1528.7 1545.19,1528.33 1547.21,1527.89 1549.18,1527.41 1551.09,1526.87 1552.95,1526.27 1554.75,1525.63 1556.49,1524.93 1558.18,1524.17 1559.82,1523.37 1561.4,1522.52 1562.93,1521.61 1564.41,1520.66 1565.83,1519.65 1567.2,1518.6 1568.51,1517.5 1569.78,1516.35 1570.99,1515.15 1572.15,1513.91 1573.26,1512.62 1574.32,1511.29 1575.33,1509.91 1576.29,1508.49 1577.2,1507.02 1578.06,1505.51 1578.87,1503.96 " />
     <polygon
   id="_284080312"
   class="fil1"
   points="1424.93,1085.35 2560.81,2221.23 2562.66,2223.23 2564.47,2225.27 2566.24,2227.35 2567.95,2229.48 2569.61,2231.64 2571.22,2233.85 2572.78,2236.1 2574.28,2238.38 2575.73,2240.71 2577.13,2243.07 2578.47,2245.47 2579.75,2247.9 2580.98,2250.36 2582.14,2252.86 2583.25,2255.4 2584.3,2257.96 2585.29,2260.56 2586.21,2263.18 2587.07,2265.84 2587.87,2268.52 2588.61,2271.23 2589.27,2273.96 2589.87,2276.72 2590.41,2279.51 2590.87,2282.32 2591.27,2285.15 2591.6,2288 2591.85,2290.88 2592.04,2293.77 2592.15,2296.69 2592.18,2299.62 1456.3,1163.74 1456.26,1160.8 1456.15,1157.89 1455.97,1155 1455.71,1152.12 1455.39,1149.27 1454.99,1146.44 1454.53,1143.63 1453.99,1140.84 1453.39,1138.08 1452.72,1135.34 1451.99,1132.64 1451.19,1129.95 1450.33,1127.3 1449.41,1124.67 1448.42,1122.08 1447.37,1119.51 1446.26,1116.98 1445.1,1114.48 1443.87,1112.01 1442.59,1109.58 1441.25,1107.19 1439.85,1104.82 1438.4,1102.5 1436.89,1100.21 1435.34,1097.97 1433.73,1095.76 1432.07,1093.59 1430.35,1091.47 1428.59,1089.38 1426.78,1087.34 " />
     <polygon
   id="_284080480"
   class="fil1"
   points="1456.3,1163.74 2592.18,2299.62 2592.15,2302.55 2592.04,2305.47 2591.85,2308.36 2591.6,2311.24 2591.27,2314.09 2590.87,2316.92 2590.41,2319.73 2589.87,2322.52 2589.27,2325.28 2588.61,2328.01 2587.87,2330.72 2587.07,2333.4 2586.21,2336.06 2585.29,2338.68 2584.3,2341.28 2583.25,2343.84 2582.14,2346.38 2580.98,2348.88 2579.75,2351.34 2578.47,2353.77 2577.13,2356.17 2575.73,2358.53 2574.28,2360.86 2572.78,2363.14 2571.22,2365.39 2569.61,2367.6 2567.95,2369.76 2566.24,2371.89 2564.47,2373.97 2562.66,2376.01 2560.81,2378.01 2558.9,2379.96 1423.02,1244.08 1424.93,1242.13 1426.78,1240.13 1428.59,1238.09 1430.35,1236.01 1432.07,1233.88 1433.73,1231.72 1435.34,1229.51 1436.89,1227.26 1438.4,1224.98 1439.85,1222.65 1441.25,1220.29 1442.59,1217.89 1443.87,1215.46 1445.1,1212.99 1446.26,1210.49 1447.37,1207.96 1448.42,1205.4 1449.41,1202.8 1450.33,1200.18 1451.19,1197.52 1451.99,1194.84 1452.72,1192.13 1453.39,1189.39 1453.99,1186.63 1454.53,1183.85 1454.99,1181.04 1455.39,1178.21 1455.71,1175.35 1455.97,1172.48 1456.15,1169.58 1456.26,1166.67 " />
     <polygon
   id="_284081152"
   class="fil1"
   points="1514.41,1358.71 2650.29,2494.6 2655.26,2499.83 2660.09,2505.09 2664.79,2510.38 2669.33,2515.68 2673.72,2520.99 2677.95,2526.3 2682.01,2531.59 2685.88,2536.86 2689.57,2542.1 1553.69,1406.22 1550,1400.98 1546.12,1395.71 1542.07,1390.42 1537.84,1385.11 1533.45,1379.8 1528.91,1374.5 1524.21,1369.21 1519.37,1363.94 " />
     <polygon
   id="_284081008"
   class="fil1"
   points="1553.69,1406.22 2689.57,2542.1 2690.64,2543.66 2691.69,2545.23 2692.73,2546.79 2693.75,2548.35 2694.76,2549.9 2695.75,2551.45 2696.72,2553 2697.67,2554.54 2698.61,2556.08 2699.53,2557.62 2700.43,2559.15 2701.31,2560.67 2702.18,2562.19 2703.02,2563.71 2703.85,2565.22 2704.66,2566.72 2705.45,2568.22 2706.22,2569.71 2706.97,2571.19 2707.7,2572.67 2708.42,2574.14 2709.11,2575.6 2709.78,2577.06 2710.43,2578.5 2711.06,2579.94 2711.67,2581.38 2712.26,2582.8 2712.83,2584.21 2713.37,2585.62 2713.89,2587.01 2714.4,2588.4 2714.88,2589.78 1579,1453.89 1578.51,1452.52 1578.01,1451.13 1577.49,1449.73 1576.94,1448.33 1576.38,1446.92 1575.79,1445.49 1575.18,1444.06 1574.55,1442.62 1573.9,1441.18 1573.23,1439.72 1572.54,1438.26 1571.82,1436.79 1571.09,1435.31 1570.34,1433.83 1569.57,1432.33 1568.78,1430.84 1567.97,1429.33 1567.14,1427.82 1566.3,1426.31 1565.43,1424.79 1564.55,1423.26 1563.65,1421.73 1562.73,1420.2 1561.79,1418.66 1560.84,1417.12 1559.87,1415.57 1558.88,1414.02 1557.87,1412.46 1556.85,1410.91 1555.81,1409.34 1554.76,1407.78 " />
     <polygon
   id="_284080864"
   class="fil1"
   points="783.707,1081.49 1919.59,2217.38 1921.54,2219.28 785.657,1083.4 " />
     <polygon
   id="_284080888"
   class="fil1"
   points="1421.63,934.683 2557.51,2070.56 2559.53,2072.79 2561.33,2075.19 2562.9,2077.77 2564.22,2080.51 2565.27,2083.38 2566.04,2086.38 2566.51,2089.49 2566.68,2092.68 2566.51,2095.88 2566.04,2098.99 2565.27,2101.99 2564.22,2104.86 2562.9,2107.6 2561.33,2110.17 2559.53,2112.58 2557.51,2114.8 2555.29,2116.82 2552.88,2118.62 2550.31,2120.19 2547.57,2121.51 2544.7,2122.56 2541.7,2123.33 2538.59,2123.8 2535.39,2123.97 2532.2,2123.8 2529.09,2123.33 2526.09,2122.56 2523.22,2121.51 2520.48,2120.19 2517.9,2118.62 2515.5,2116.82 2513.27,2114.8 1377.39,978.922 1379.61,980.941 1382.02,982.742 1384.6,984.309 1387.34,985.626 1390.21,986.677 1393.21,987.448 1396.31,987.922 1399.51,988.084 1402.71,987.922 1405.82,987.448 1408.82,986.677 1411.69,985.626 1414.42,984.309 1417,982.742 1419.41,980.941 1421.63,978.922 1423.65,976.7 1425.45,974.292 1427.02,971.714 1428.34,968.978 1429.39,966.105 1430.16,963.107 1430.63,960.001 1430.79,956.802 1430.63,953.604 1430.16,950.498 1429.39,947.5 1428.34,944.626 1427.02,941.891 1425.45,939.313 1423.65,936.904 " />
     <polygon
   id="_284081224"
   class="fil1"
   points="785.657,1244.08 1921.54,2379.96 1920.46,2381.03 1919.36,2382.08 1918.25,2383.12 1917.12,2384.14 1915.99,2385.15 1914.83,2386.15 1913.67,2387.13 1912.49,2388.09 1911.3,2389.04 1910.09,2389.97 1908.88,2390.89 1907.65,2391.79 1906.41,2392.67 1905.15,2393.54 1903.88,2394.39 1902.61,2395.23 1901.32,2396.05 1900.01,2396.85 1898.7,2397.63 1897.38,2398.4 1896.04,2399.15 1894.69,2399.88 1893.33,2400.6 1891.96,2401.29 1890.58,2401.97 1889.2,2402.63 1887.8,2403.27 1886.38,2403.9 1884.97,2404.5 1883.53,2405.09 1882.1,2405.65 1880.65,2406.2 744.765,1270.32 746.214,1269.77 747.654,1269.21 749.084,1268.62 750.504,1268.01 751.914,1267.39 753.315,1266.75 754.704,1266.09 756.083,1265.41 757.452,1264.71 758.81,1264 760.158,1263.27 761.494,1262.52 762.819,1261.75 764.132,1260.97 765.434,1260.17 766.725,1259.35 768.003,1258.51 769.27,1257.66 770.525,1256.79 771.766,1255.91 772.997,1255.01 774.213,1254.09 775.418,1253.16 776.608,1252.21 777.787,1251.25 778.953,1250.27 780.105,1249.27 781.242,1248.26 782.368,1247.24 783.478,1246.2 784.574,1245.15 " />
     <polygon
   id="_284080792"
   class="fil1"
   points="916.322,1406.22 2052.2,2542.1 2053.27,2543.66 2054.33,2545.23 2055.37,2546.79 2056.39,2548.35 2057.39,2549.9 2058.38,2551.45 2059.36,2553 2060.31,2554.54 2061.24,2556.08 2062.16,2557.62 2063.06,2559.15 2063.95,2560.67 2064.81,2562.19 2065.66,2563.71 2066.49,2565.22 2067.3,2566.72 2068.09,2568.22 2068.86,2569.71 2069.61,2571.19 2070.34,2572.67 2071.05,2574.14 2071.74,2575.6 2072.41,2577.06 2073.07,2578.5 2073.69,2579.94 2074.3,2581.38 2074.89,2582.8 2075.46,2584.21 2076.01,2585.62 2076.53,2587.01 2077.03,2588.4 2077.51,2589.78 941.631,1453.89 941.15,1452.52 940.648,1451.13 940.125,1449.73 939.579,1448.33 939.011,1446.92 938.423,1445.49 937.814,1444.06 937.184,1442.62 936.533,1441.18 935.861,1439.72 935.17,1438.26 934.458,1436.79 933.727,1435.31 932.976,1433.83 932.205,1432.33 931.416,1430.84 930.607,1429.33 929.779,1427.82 928.932,1426.31 928.067,1424.79 927.184,1423.26 926.284,1421.73 925.364,1420.2 924.427,1418.66 923.474,1417.12 922.502,1415.57 921.513,1414.02 920.508,1412.46 919.487,1410.91 918.448,1409.34 917.394,1407.78 " />
     <polygon
   id="_284080696"
   class="fil1"
   points="941.631,1453.89 2077.51,2589.78 2078.08,2591.47 2078.61,2593.15 2079.11,2594.83 2079.57,2596.49 2080.01,2598.15 2080.41,2599.8 2080.77,2601.43 2081.11,2603.06 2081.4,2604.67 2081.67,2606.28 2081.89,2607.87 2082.09,2609.45 2082.24,2611.02 2082.37,2612.58 2082.45,2614.13 2082.5,2615.66 2082.52,2617.18 2082.49,2618.69 2082.43,2620.18 2082.33,2621.66 2082.2,2623.12 2082.03,2624.58 2081.81,2626.01 2081.56,2627.44 2081.28,2628.84 2080.95,2630.23 2080.58,2631.61 2080.17,2632.97 2079.73,2634.32 2079.24,2635.64 2078.71,2636.95 2078.15,2638.25 942.266,1502.36 942.833,1501.07 943.36,1499.76 943.847,1498.43 944.293,1497.09 944.7,1495.73 945.067,1494.35 945.394,1492.96 945.683,1491.55 945.933,1490.13 946.144,1488.69 946.318,1487.24 946.453,1485.78 946.552,1484.3 946.612,1482.8 946.635,1481.3 946.622,1479.78 946.572,1478.24 946.487,1476.7 946.364,1475.14 946.207,1473.57 946.013,1471.99 945.785,1470.4 945.522,1468.79 945.224,1467.18 944.892,1465.55 944.526,1463.91 944.127,1462.27 943.693,1460.61 943.227,1458.95 942.727,1457.27 942.196,1455.59 " />
     <polygon
   id="_284080720"
   class="fil1"
   points="674.266,1273.06 1810.15,2408.94 1808.38,2408.43 1806.63,2407.88 1804.89,2407.31 1803.16,2406.71 1801.44,2406.09 1799.74,2405.44 1798.05,2404.76 1796.38,2404.05 1794.71,2403.32 1793.06,2402.57 1791.43,2401.79 1789.81,2400.98 1788.21,2400.15 1786.62,2399.29 1785.04,2398.41 1783.48,2397.51 1781.94,2396.58 1780.41,2395.63 1778.9,2394.65 1777.41,2393.65 1775.93,2392.63 1774.47,2391.59 1773.03,2390.52 1771.6,2389.43 1770.2,2388.32 1768.8,2387.19 1767.43,2386.04 1766.08,2384.86 630.2,1248.98 631.552,1250.15 632.924,1251.31 634.314,1252.44 635.722,1253.55 637.147,1254.64 638.589,1255.7 640.05,1256.75 641.528,1257.77 643.022,1258.77 644.533,1259.74 646.06,1260.7 647.602,1261.62 649.162,1262.53 650.736,1263.41 652.326,1264.27 653.93,1265.1 655.55,1265.9 657.184,1266.68 658.832,1267.44 660.494,1268.17 662.17,1268.88 663.859,1269.55 665.562,1270.21 667.278,1270.83 669.006,1271.43 670.747,1272 672.5,1272.54 " />
     <polygon
   id="_284080600"
   class="fil1"
   points="892.046,1529.75 2027.93,2665.63 1652.33,2665.63 516.446,1529.75 " />
     <polygon
   id="_284080984"
   class="fil1"
   points="516.446,1529.75 1652.33,2665.63 1650.02,2665.61 1647.78,2665.53 1645.59,2665.39 1643.45,2665.21 1641.36,2664.97 1639.33,2664.68 1637.35,2664.34 1635.43,2663.94 1633.55,2663.5 1631.73,2663.01 1629.97,2662.47 1628.25,2661.88 1626.58,2661.24 1624.97,2660.55 1623.41,2659.82 1621.89,2659.04 1620.43,2658.21 1619.02,2657.34 1617.65,2656.42 1616.34,2655.46 1615.07,2654.45 479.19,1518.57 480.456,1519.58 481.77,1520.54 483.134,1521.46 484.548,1522.33 486.01,1523.16 487.524,1523.94 489.087,1524.67 490.701,1525.36 492.367,1526 494.084,1526.59 495.852,1527.13 497.673,1527.62 499.545,1528.06 501.47,1528.45 503.449,1528.8 505.48,1529.09 507.565,1529.32 509.704,1529.51 511.897,1529.64 514.144,1529.72 " />
     <polygon
   id="_284081560"
   class="fil1"
   points="942.266,1502.36 2078.15,2638.25 2077.39,2639.84 2076.57,2641.39 2075.71,2642.9 2074.81,2644.37 2073.85,2645.79 2072.84,2647.17 2071.78,2648.5 2070.67,2649.79 2069.51,2651.03 2068.29,2652.23 2067.03,2653.38 2065.71,2654.48 2064.34,2655.53 2062.92,2656.54 2061.45,2657.49 2059.92,2658.4 2058.34,2659.25 2056.7,2660.06 2055.01,2660.81 2053.27,2661.51 2051.47,2662.16 2049.61,2662.75 2047.7,2663.29 2045.73,2663.78 2043.71,2664.21 2041.63,2664.58 2039.49,2664.9 2037.29,2665.16 2035.04,2665.37 2032.73,2665.52 2030.36,2665.6 2027.93,2665.63 892.046,1529.75 894.475,1529.72 896.846,1529.63 899.157,1529.49 901.411,1529.28 903.607,1529.02 905.744,1528.7 907.826,1528.33 909.85,1527.89 911.818,1527.41 913.73,1526.87 915.585,1526.27 917.385,1525.63 919.131,1524.93 920.821,1524.17 922.457,1523.37 924.039,1522.52 925.567,1521.61 927.041,1520.66 928.463,1519.65 929.832,1518.6 931.148,1517.5 932.413,1516.35 933.624,1515.15 934.787,1513.91 935.897,1512.62 936.956,1511.29 937.965,1509.91 938.924,1508.49 939.833,1507.02 940.693,1505.51 941.505,1503.96 " />
     <polygon
   id="_284081512"
   class="fil1"
   points="785.657,1083.4 1921.54,2219.28 1923.44,2221.23 1925.3,2223.23 1927.11,2225.27 1928.87,2227.35 1930.58,2229.48 1932.24,2231.64 1933.85,2233.85 1935.41,2236.1 1936.92,2238.38 1938.37,2240.71 1939.76,2243.07 1941.1,2245.47 1942.39,2247.9 1943.61,2250.36 1944.78,2252.86 1945.89,2255.4 1946.94,2257.96 1947.92,2260.56 1948.85,2263.18 1949.71,2265.84 1950.51,2268.52 1951.24,2271.23 1951.91,2273.96 1952.51,2276.72 1953.04,2279.51 1953.51,2282.32 1953.91,2285.15 1954.23,2288 1954.49,2290.88 1954.67,2293.77 1954.78,2296.69 1954.82,2299.62 818.937,1163.74 818.9,1160.8 818.789,1157.89 818.605,1155 818.35,1152.12 818.024,1149.27 817.628,1146.44 817.162,1143.63 816.628,1140.84 816.028,1138.08 815.359,1135.34 814.626,1132.64 813.829,1129.95 812.966,1127.3 812.042,1124.67 811.055,1122.08 810.008,1119.51 808.9,1116.98 807.732,1114.48 806.506,1112.01 805.223,1109.58 803.883,1107.19 802.486,1104.82 801.036,1102.5 799.531,1100.21 797.973,1097.97 796.364,1095.76 794.702,1093.59 792.99,1091.47 791.229,1089.38 789.419,1087.34 787.562,1085.35 " />
     <polygon
   id="_284081752"
   class="fil1"
   points="1529.41,1529.75 2665.29,2665.63 2289.69,2665.63 1153.81,1529.75 " />
     <polygon
   id="_284081608"
   class="fil1"
   points="1153.81,1529.75 2289.69,2665.63 2287.39,2665.61 2285.14,2665.53 2282.95,2665.39 2280.81,2665.21 2278.73,2664.97 2276.69,2664.68 2274.72,2664.34 2272.79,2663.94 2270.92,2663.5 2269.1,2663.01 2267.33,2662.47 2265.61,2661.88 2263.95,2661.24 2262.33,2660.55 2260.77,2659.82 2259.26,2659.04 2257.79,2658.21 2256.38,2657.34 2255.02,2656.42 2253.7,2655.46 2252.44,2654.45 2251.22,2653.4 1115.34,1517.52 1116.55,1518.57 1117.82,1519.58 1119.13,1520.54 1120.5,1521.46 1121.91,1522.33 1123.37,1523.16 1124.89,1523.94 1126.45,1524.67 1128.07,1525.36 1129.73,1526 1131.45,1526.59 1133.22,1527.13 1135.04,1527.62 1136.91,1528.06 1138.84,1528.45 1140.81,1528.8 1142.84,1529.09 1144.93,1529.32 1147.07,1529.51 1149.26,1529.64 1151.51,1529.72 " />
     <polygon
   id="_284081968"
   class="fil1"
   points="856.014,1338.33 1991.9,2474.22 1997.31,2479.21 2002.63,2484.28 2007.83,2489.41 2012.92,2494.6 2017.89,2499.83 2022.73,2505.09 2027.42,2510.38 2031.97,2515.68 2036.36,2520.99 2040.59,2526.3 2044.64,2531.59 2048.52,2536.86 2052.2,2542.1 916.322,1406.22 912.635,1400.98 908.76,1395.71 904.705,1390.42 900.478,1385.11 896.087,1379.8 891.54,1374.5 886.844,1369.21 882.01,1363.94 877.042,1358.71 871.952,1353.53 866.744,1348.4 861.429,1343.33 " />
    </g>
    <path
   id="_385667608"
   class="fil1"
   d="M1217.26 671.826c17.2784,0 31.2827,14.0043 31.2827,31.2803 0,17.2784 -14.0043,31.2827 -31.2827,31.2827 -17.276,0 -31.2803,-14.0043 -31.2803,-31.2827 0,-17.276 14.0043,-31.2803 31.2803,-31.2803zm111.659 106.703c17.2772,0 31.2827,14.0055 31.2827,31.2827 0,17.276 -14.0055,31.2815 -31.2827,31.2815 -17.276,0 -31.2803,-14.0055 -31.2803,-31.2815 0,-17.2772 14.0043,-31.2827 31.2803,-31.2827zm-86.5406 95.8146c11.5051,16.715 20.3043,33.0485 25.3087,47.6788 6.19252,18.1028 6.90355,34.7611 0.635434,48.4701 -7.87442,17.2205 -23.9941,27.3886 -50.2217,27.3886l-375.599 0c-24.8469,0 -40.3051,-9.23032 -48.0343,-25.0642 -6.69449,-13.7079 -5.51339,-30.554 1.80236,-48.9922 5.73426,-14.4555 15.3815,-30.4984 27.7595,-46.8426 40.4859,-53.4662 114.112,-114.951 176.29,-135.794 -18.8917,-5.3563 -35.7803,-15.4784 -49.2851,-28.9843 -20.5618,-20.5595 -33.2811,-48.9662 -33.2811,-80.3375 0,-31.3725 12.7193,-59.7792 33.2811,-80.3386 20.5606,-20.5618 48.9662,-33.2811 80.3386,-33.2811 31.3713,0 59.778,12.7193 80.3386,33.2811 20.5618,20.5595 33.2811,48.9662 33.2811,80.3386 0,31.3713 -12.7193,59.778 -33.2811,80.3375 -11.4709,11.4709 -25.3831,20.5016 -40.891,26.2441 61.5095,17.2961 133.26,80.2595 171.558,135.895zm-425.106 -171.238c0,-17.276 14.0043,-31.2803 31.2815,-31.2803 17.276,0 31.2815,14.0043 31.2815,31.2803 0,17.2784 -14.0055,31.2827 -31.2815,31.2827 -17.2772,0 -31.2815,-14.0043 -31.2815,-31.2827zm564.858 567.214c61.5107,17.2949 133.26,80.2583 171.558,135.895 11.5063,16.715 20.3055,33.0485 25.3087,47.6776 6.19252,18.104 6.90473,34.7611 0.635434,48.4713 -7.87442,17.2193 -23.9941,27.3874 -50.2205,27.3874l-375.6 0c-24.8457,0 -40.304,-9.23032 -48.0343,-25.0642 -6.69449,-13.7079 -5.51221,-30.5528 1.80236,-48.9922 5.73544,-14.4543 15.3827,-30.4973 27.7595,-46.8426 40.487,-53.4662 114.113,-114.951 176.291,-135.793 -18.8917,-5.3563 -35.7815,-15.4784 -49.2863,-28.9843 -20.5618,-20.5606 -33.2799,-48.9674 -33.2799,-80.3386 0,-31.3713 12.7181,-59.778 33.2799,-80.3386 20.5606,-20.5618 48.9662,-33.2799 80.3386,-33.2799 31.3725,0 59.7792,12.7181 80.3386,33.2799 20.5618,20.5606 33.2811,48.9674 33.2811,80.3386 0,31.3713 -12.7193,59.778 -33.2811,80.3386 -11.4709,11.4721 -25.3831,20.5016 -40.891,26.2441zm-676.517 -460.509c0,-17.2772 14.0055,-31.2827 31.2815,-31.2827 17.2772,0 31.2815,14.0055 31.2815,31.2827 0,17.276 -14.0043,31.2815 -31.2815,31.2815 -17.276,0 -31.2815,-14.0055 -31.2815,-31.2815zm-70.5934 146.991c0,-17.2772 14.0043,-31.2815 31.2803,-31.2815 17.2772,0 31.2827,14.0043 31.2827,31.2815 0,17.2772 -14.0055,31.2815 -31.2827,31.2815 -17.276,0 -31.2803,-14.0043 -31.2803,-31.2815zm764.494 -31.2815c17.2772,0 31.2815,14.0043 31.2815,31.2815 0,17.2772 -14.0043,31.2815 -31.2815,31.2815 -17.2772,0 -31.2815,-14.0043 -31.2815,-31.2815 0,-17.2772 14.0043,-31.2815 31.2815,-31.2815zm-654.748 344.799c61.5095,17.2949 133.26,80.2583 171.558,135.895 11.5063,16.715 20.3055,33.0485 25.3087,47.6776 6.19252,18.104 6.90473,34.7611 0.635434,48.4713 -7.87323,17.2193 -23.9941,27.3874 -50.2205,27.3874l-375.6 0c-24.8457,0 -40.304,-9.23032 -48.0343,-25.0642 -6.69449,-13.7079 -5.51221,-30.5528 1.80354,-48.9922 5.73426,-14.4543 15.3815,-30.4973 27.7583,-46.8426 40.487,-53.4662 114.113,-114.951 176.293,-135.793 -18.8917,-5.3563 -35.7815,-15.4784 -49.2863,-28.9843 -20.5618,-20.5606 -33.2811,-48.9674 -33.2811,-80.3386 0,-31.3713 12.7193,-59.778 33.2811,-80.3386 20.5595,-20.5618 48.965,-33.2799 80.3375,-33.2799 31.3725,0 59.7792,12.7181 80.3398,33.2799 20.5618,20.5606 33.2799,48.9674 33.2799,80.3386 0,31.3713 -12.7181,59.778 -33.2799,80.3386 -11.4709,11.4721 -25.3843,20.5016 -40.8922,26.2441z" />
   </g>
  </g>
  <path
   class="fil2"
   d="M1024 -0.0011811c565.541,0 1024,458.461 1024,1024 0,565.541 -458.461,1024 -1024,1024 -565.541,0 -1024,-458.461 -1024,-1024 0,-565.541 458.461,-1024 1024,-1024z"
   id="path17240" />
  <path
   class="fil3"
   d="M1351.49 1265.72c66.4489,0 157.303,75.2812 202.193,140.497 11.5063,16.715 20.3055,33.0485 25.3087,47.6776 6.19252,18.104 6.90473,34.7611 0.635434,48.4713 -7.87442,17.2193 -23.9941,27.3874 -50.2205,27.3874l-375.6 0c-24.8457,0 -40.304,-9.23032 -48.0343,-25.0642 -6.69449,-13.7079 -5.51221,-30.5528 1.80236,-48.9922 5.73544,-14.4543 15.3827,-30.4973 27.7595,-46.8426 49.6311,-65.5418 149.064,-143.134 216.156,-143.134z"
   id="path17242" />
  <path
   class="fil4"
   d="M1342.68 1050.12c31.3725,0 59.7792,12.7181 80.3398,33.2799 20.5606,20.5606 33.2799,48.9662 33.2799,80.3386 0,31.3725 -12.7193,59.778 -33.2799,80.3386 -20.5606,20.5618 -48.9674,33.2799 -80.3398,33.2799 -31.3725,0 -59.778,-12.7181 -80.3386,-33.2799 -20.5606,-20.5606 -33.2799,-48.9662 -33.2799,-80.3386 0,-31.3725 12.7193,-59.778 33.2799,-80.3386 20.5606,-20.5618 48.9662,-33.2799 80.3386,-33.2799z"
   id="path17244" />
  <ellipse
   class="fil5"
   cx="848.553"
   cy="703.107"
   rx="31.2815"
   ry="31.2814"
   id="ellipse17246" />
  <ellipse
   class="fil5"
   cx="736.894"
   cy="809.811"
   rx="31.2815"
   ry="31.2814"
   id="ellipse17248" />
  <ellipse
   class="fil5"
   cx="666.3"
   cy="956.802"
   rx="31.2815"
   ry="31.2814"
   id="ellipse17250" />
  <ellipse
   class="fil5"
   cx="1217.26"
   cy="703.107"
   rx="31.2815"
   ry="31.2814"
   id="ellipse17252" />
  <ellipse
   class="fil5"
   cx="1328.92"
   cy="809.811"
   rx="31.2815"
   ry="31.2814"
   id="ellipse17254" />
  <ellipse
   class="fil5"
   cx="1399.51"
   cy="956.802"
   rx="31.2815"
   ry="31.2814"
   id="ellipse17256" />
  <path
   class="fil3"
   d="M714.13 1265.72c66.4477,0 157.302,75.2812 202.192,140.497 11.5063,16.715 20.3055,33.0485 25.3087,47.6776 6.19252,18.104 6.90473,34.7611 0.635434,48.4713 -7.87323,17.2193 -23.9941,27.3874 -50.2205,27.3874l-375.6 0c-24.8457,0 -40.304,-9.23032 -48.0343,-25.0642 -6.69449,-13.7079 -5.51221,-30.5528 1.80354,-48.9922 5.73426,-14.4543 15.3815,-30.4973 27.7583,-46.8426 49.6311,-65.5418 149.064,-143.134 216.157,-143.134z"
   id="path17258" />
  <path
   class="fil4"
   d="M705.317 1050.12c31.3725,0 59.7792,12.7181 80.3398,33.2799 20.5606,20.5606 33.2799,48.9662 33.2799,80.3386 0,31.3725 -12.7193,59.778 -33.2799,80.3386 -20.5606,20.5618 -48.9674,33.2799 -80.3398,33.2799 -31.3725,0 -59.778,-12.7181 -80.3375,-33.2799 -20.5618,-20.5606 -33.2811,-48.9662 -33.2811,-80.3386 0,-31.3725 12.7193,-59.778 33.2811,-80.3386 20.5595,-20.5618 48.965,-33.2799 80.3375,-33.2799z"
   id="path17260" />
  <path
   class="fil6"
   d="M1040.18 733.847c66.4477,0 157.303,75.2823 202.193,140.497 11.5051,16.715 20.3043,33.0485 25.3087,47.6788 6.19252,18.1028 6.90355,34.7611 0.635434,48.4701 -7.87442,17.2205 -23.9941,27.3886 -50.2217,27.3886l-375.599 0c-24.8469,0 -40.3051,-9.23032 -48.0343,-25.0642 -6.69449,-13.7079 -5.51339,-30.554 1.80236,-48.9922 5.73426,-14.4555 15.3815,-30.4984 27.7595,-46.8426 49.63,-65.5418 149.062,-143.136 216.156,-143.136z"
   id="path17262" />
  <path
   class="fil7"
   d="M1031.37 518.247c31.3725,0 59.778,12.7193 80.3386,33.2811 20.5618,20.5606 33.2799,48.9662 33.2799,80.3386 0,31.3713 -12.7181,59.778 -33.2799,80.3386 -20.5606,20.5606 -48.9662,33.2799 -80.3386,33.2799 -31.3725,0 -59.778,-12.7193 -80.3386,-33.2799 -20.5618,-20.5606 -33.2799,-48.9674 -33.2799,-80.3386 0,-31.3725 12.7181,-59.778 33.2799,-80.3386 20.5606,-20.5618 48.9662,-33.2811 80.3386,-33.2811z"
   id="path17264" />
 </g>
</svg>
